<svg width="336" height="288" viewBox="0 0 336 288" fill="none" xmlns="http://www.w3.org/2000/svg">
<rect width="336" height="288" fill="#F0F0F0"/>
<path d="M81 190.429C81 189.962 81.3801 189.584 81.8491 189.584H88.9609C89.4298 189.584 89.81 189.962 89.81 190.429V227.442C89.81 227.909 89.4298 228.288 88.9609 228.288H81.8491C81.3801 228.288 81 227.909 81 227.442V190.429Z" fill="#4D6296"/>
<path d="M194.104 224.976C194.423 225.774 193.482 226.482 192.798 225.959L188.257 222.489C188.213 222.455 188.213 222.388 188.258 222.355L191.856 219.644C191.9 219.611 191.965 219.628 191.986 219.68L194.104 224.976Z" fill="#E67642"/>
<path d="M183.363 214.468C175.324 223 165.582 227.05 160.959 223.965C160.57 223.705 160.58 223.174 161.026 223.028C161.53 222.863 162.169 222.732 162.953 222.101C167.135 217.662 169.936 213.961 173.158 210.542C174.683 208.923 176.2 207.313 177.802 205.612C181.127 202.083 184.473 199.325 189.374 194.123C189.915 193.442 190.15 192.444 190.46 191.699C190.64 191.267 191.169 191.228 191.455 191.598C194.841 195.996 191.402 205.936 183.363 214.468Z" fill="#E67642"/>
<path d="M164.119 203.326C163.733 203.019 163.69 202.45 164.027 202.089L168.535 197.267C168.876 196.903 169.456 196.905 169.795 197.27C171.156 198.735 174.553 202.295 178.108 205.287C181.357 208.242 182.318 209.255 185.455 212.022C188.979 215.13 188.673 215.033 192.257 216.243C192.51 216.329 192.957 216.622 193.167 216.787Lnan nanLnan nanL193.167 216.787C194.689 217.978 194.805 220.008 193.648 221.554L193.498 221.755C192.236 223.443 189.821 223.753 188.169 222.441L164.119 203.326Z" fill="#4D6296"/>
<path d="M120.043 193.267C120.024 192.788 120.409 192.389 120.891 192.389H127.21C127.685 192.389 128.068 192.778 128.058 193.251L127.716 211.062C127.68 212.958 126.126 214.476 124.222 214.476Lnan nanLnan nanL124.222 214.476C122.343 214.476 120.801 212.998 120.729 211.129L120.043 193.267Z" fill="#E67642"/>
<path d="M145.593 208.709C145.276 219.026 138.816 228.039 133.037 228.483Lnan nanL133.037 228.483C131.757 228.581 132.029 226.964 132.695 225.871C133.463 224.611 133.655 223.9 134.048 222.675C134.58 221.014 135.895 217.507 136.01 208.587C135.998 203.192 135.557 196.026 135.409 190.633Lnan nanL135.409 190.633C135.445 189.753 136.187 189.043 137.034 189.297C142.167 190.833 145.892 198.996 145.593 208.709Z" fill="#CDAC00"/>
<path d="M104.355 215.2C104.138 216.109 103.117 216.499 102.257 216.127C96.2271 213.515 95.2134 213.076 86.3193 209.224C88.4209 204.412 94.0419 202.208 98.874 204.301C103.177 206.165 105.404 210.808 104.355 215.2Z" fill="#CDAC00"/>
<path d="M238.132 193.027C238.601 193.027 238.981 193.406 238.981 193.873L238.981 199.369C238.981 199.836 238.601 200.214 238.132 200.214L218.075 200.214C217.606 200.214 217.226 199.836 217.226 199.369L217.226 193.873C217.226 193.406 217.606 193.027 218.075 193.027L238.132 193.027Z" fill="#4D6296"/>
<path d="M244.365 204.255C244.834 204.255 245.214 204.633 245.214 205.1L245.214 210.596C245.214 211.063 244.834 211.442 244.365 211.442L211.841 211.442C211.372 211.442 210.992 211.063 210.992 210.596L210.992 205.1C210.992 204.633 211.372 204.255 211.841 204.255L244.365 204.255Z" fill="#CDAC00"/>
<path d="M218.716 226.79C218.265 226.661 218.064 226.158 218.246 225.728C221.884 217.148 222.23 216.333 227.163 204.698C231.069 206.197 233.202 207.719 233.348 210.568C233.467 212.901 232.05 216.408 230.9 219.119C228.492 224.798 223.185 228.064 218.716 226.79Z" fill="#CDAC00"/>
<path d="M241.682 190.046C242.279 189.325 243.354 189.606 243.831 190.41C244.996 192.379 245.486 193.205 247.061 195.865C247.537 196.67 247.265 197.744 246.343 197.916C244.382 198.281 242.316 197.417 241.244 195.607C240.172 193.797 240.413 191.578 241.682 190.046Z" fill="#E67642"/>
<path d="M253.047 199.81C252.45 200.531 251.375 200.25 250.898 199.445C249.733 197.477 249.243 196.651 247.668 193.991C247.191 193.186 247.464 192.112 248.386 191.94C250.346 191.575 252.413 192.439 253.485 194.249C254.557 196.059 254.316 198.278 253.047 199.81Z" fill="#E67642"/>
<path fill-rule="evenodd" clip-rule="evenodd" d="M212.609 152.498C210.965 152.59 209.064 153.472 207.653 155.12C207.188 155.663 206.564 155.986 205.91 156.079C205.97 156.753 205.793 157.451 205.361 158.037C204.561 159.12 204.462 160.162 204.628 160.765C204.706 161.049 204.842 161.257 205.026 161.414C205.211 161.572 205.549 161.767 206.158 161.85C209.759 162.344 212.738 160.952 214.546 159.048C216.51 156.979 216.55 155.079 216.095 154.269C215.388 153.011 214.179 152.411 212.609 152.498Z" fill="#F8F5DF"/>
<path fill-rule="evenodd" clip-rule="evenodd" d="M212.609 152.498C210.965 152.589 209.065 153.471 207.654 155.119C207.188 155.662 206.564 155.986 205.911 156.079C205.97 156.753 205.794 157.451 205.361 158.036C204.561 159.119 204.462 160.162 204.628 160.764C204.706 161.048 204.842 161.256 205.026 161.414C205.211 161.571 205.55 161.767 206.159 161.85C209.76 162.343 212.739 160.951 214.546 159.047C216.511 156.979 216.551 155.078 216.096 154.269C215.389 153.011 214.179 152.41 212.609 152.498ZM202.697 153.508C201.977 153.612 201.296 153.993 200.827 154.628C199.174 156.864 198.465 159.699 199.179 162.291C199.94 165.052 202.195 167.063 205.398 167.502C210.916 168.257 215.662 166.119 218.631 162.992C221.443 160.03 223.232 155.399 221.016 151.456C219.081 148.013 215.649 146.616 212.297 146.803C209.02 146.985 205.72 148.65 203.373 151.391C202.853 152 202.632 152.766 202.697 153.508Z" fill="#4D6296"/>
<path fill-rule="evenodd" clip-rule="evenodd" d="M148.016 65.0568C149.712 60.2769 155.203 57.0767 161.136 59.5107C164.172 60.756 165.65 63.1138 166.278 65.4234C166.412 65.9153 166.509 66.4103 166.578 66.8972C167.278 66.4335 168.029 65.9765 168.804 65.5963C170.306 64.8591 172.181 64.2626 174.265 64.5695C176.708 64.9294 178.632 66.4433 179.795 68.2553C180.956 70.0632 181.515 72.3996 180.985 74.7045C180.701 75.9405 180.2 77.0797 179.628 78.0794C183.568 79.4561 187.741 81.3447 191.86 84.1093C203.19 91.7151 211.255 101.188 215.014 114.863C218.83 128.742 217.094 144.703 208.64 157.082C200.105 169.581 184.978 178.055 162.851 177.299C156.312 177.226 146.179 175.473 136.619 170.46C126.986 165.408 117.804 156.964 113.671 143.513C103.516 110.461 124.801 86.2483 139.276 79.9281C141.88 78.7911 144.843 77.6967 148.11 76.8264C147.856 75.3159 147.636 73.614 147.518 71.9609C147.355 69.6951 147.334 66.9782 148.016 65.0568ZM158.924 64.9037C156.251 63.8073 154.158 65.1784 153.509 67.0066C153.278 67.6578 153.168 69.2572 153.332 71.5444C153.485 73.6745 153.834 75.9365 154.183 77.5791C154.595 79.5222 153.42 81.5187 151.404 82.0103C151.141 82.0745 150.895 82.1342 150.826 82.151C147.406 82.9739 144.31 84.0908 141.608 85.2703C129.266 90.6594 110.134 112.151 119.243 141.801C122.816 153.43 130.725 160.787 139.327 165.298C147.984 169.838 157.208 171.412 162.946 171.471L162.982 171.471L163.017 171.472C183.426 172.178 196.552 164.448 203.827 153.795C211.188 143.014 212.818 128.864 209.394 116.408C206.08 104.354 199.04 95.9505 188.611 88.9491C183.869 85.7657 178.982 83.8606 174.413 82.5335C172.124 81.8689 171.399 79.058 172.958 77.3515C173.921 76.2978 174.975 74.8294 175.304 73.3984C175.439 72.8118 175.314 72.0651 174.89 71.4047C174.469 70.7484 173.907 70.4089 173.416 70.3365C172.951 70.2681 172.319 70.3649 171.372 70.8293C170.403 71.3048 169.407 72.0086 168.206 72.8677L168.184 72.8836C167.647 73.2671 167.067 73.6823 166.487 74.0649C163.845 75.8074 160.672 73.681 160.845 70.789C160.927 69.4108 160.96 68.0801 160.653 66.9535C160.388 65.9771 159.922 65.3133 158.924 64.9037Z" fill="#4D6296"/>
<path fill-rule="evenodd" clip-rule="evenodd" d="M141.249 172.322C141.879 171.808 143.018 171.954 143.817 171.609L146.548 173.376L146.546 173.457C146.45 177.16 143.282 180.416 140.267 178.732C137.738 177.228 138.948 173.984 141.249 172.322Z" fill="#4D6296"/>
<path fill-rule="evenodd" clip-rule="evenodd" d="M148.239 180.957C144.478 180.701 143.802 176.798 145.536 173.451L148.769 173.09L148.819 173.154C149.479 174.005 150.995 174.748 151.315 175.746C151.671 177.904 151.903 180.957 148.239 180.957Z" fill="#4D6296"/>
<path fill-rule="evenodd" clip-rule="evenodd" d="M174.017 176.727C174.181 176.003 176.337 172.449 176.718 171.751L179.675 171.486L179.719 171.545C181.265 173.631 181.189 177.566 179.919 179.637C179.357 180.553 178.584 180.97 177.715 181.092C176.349 181.285 175.122 180.425 174.569 179.637C174.053 178.903 173.752 177.894 174.017 176.727Z" fill="#4D6296"/>
<path fill-rule="evenodd" clip-rule="evenodd" d="M186.172 178.783C184.871 179.895 182.53 179.727 181.143 178.232C179.092 176.021 177.855 174.265 177.466 172.197L179.96 169.871L180.031 169.889C180.985 170.129 183 171.501 185.057 172.615C187.613 174 187.988 177.23 186.172 178.783Z" fill="#4D6296"/>
<path d="M150.528 66.4916C151.777 63.1893 155.816 60.9048 160.399 62.669C164.696 64.3232 164.538 68.7093 164.366 71.4201C164.326 72.0491 165.006 72.4362 165.567 72.0892C166.136 71.7371 166.714 71.3489 167.301 70.9547C169.769 69.2984 172.394 67.537 175.109 67.9122C178.235 68.3443 180.402 71.6173 179.694 74.5073C179.112 76.8834 177.297 78.9593 176.16 80.0731C164.972 91.0296 154.44 91.6084 151.326 79.4362C150.477 76.1203 149.477 69.2704 150.528 66.4916Z" fill="url(#paint0_linear_8_2)"/>
<path fill-rule="evenodd" clip-rule="evenodd" d="M146.733 65.056C148.798 59.598 155.225 56.3297 161.857 58.8825C165.381 60.239 167.187 62.8701 167.955 65.5184C167.973 65.5819 167.991 65.6455 168.009 65.709C168.464 65.4527 168.935 65.2073 169.415 64.9862C171.1 64.2104 173.25 63.5594 175.664 63.893C181.146 64.6506 184.922 70.2189 183.635 75.4725C182.769 79.0063 180.244 81.7517 178.999 82.9715C173.15 88.6989 166.736 92.4947 160.708 92.4848C157.542 92.4796 154.581 91.4094 152.185 89.184C149.854 87.0183 148.304 83.9933 147.395 80.4415C146.915 78.5665 146.418 75.8112 146.174 73.1292C146.052 71.7824 145.986 70.379 146.036 69.0676C146.082 67.8251 146.24 66.3609 146.733 65.056L146.733 65.056ZM158.942 66.455C156.407 65.4793 154.756 66.78 154.323 67.9267C154.323 67.9265 154.323 67.9266 154.323 67.9267C154.322 67.9291 154.31 67.9611 154.294 68.0294C154.276 68.1019 154.255 68.2022 154.235 68.3336C154.193 68.6005 154.16 68.9461 154.144 69.3723C154.112 70.2304 154.153 71.2677 154.255 72.3953C154.461 74.6619 154.887 76.9894 155.256 78.4303C155.905 80.9647 156.839 82.4319 157.708 83.2387C158.512 83.9858 159.467 84.3685 160.722 84.3705C163.535 84.3751 167.981 82.4033 173.321 77.1741C173.772 76.7327 174.328 76.1269 174.811 75.4368C175.306 74.7298 175.622 74.0796 175.753 73.5416L179.694 74.5071L175.753 73.5416C175.794 73.3768 175.783 73.0052 175.491 72.5788C175.208 72.1652 174.843 71.9709 174.553 71.9309C174.252 71.8893 173.733 71.9314 172.81 72.3566C171.853 72.7969 170.853 73.4569 169.562 74.3232L167.759 71.6356L167.301 70.9545L167.759 71.6356L169.562 74.3232L169.533 74.3428C168.966 74.7236 168.335 75.147 167.702 75.5386C164.629 77.4414 160.046 75.4141 160.317 71.1624L164.366 71.4198L160.317 71.1624C160.405 69.7755 160.417 68.6594 160.162 67.7777C160.05 67.3928 159.911 67.152 159.772 66.9895C159.647 66.8426 159.421 66.6395 158.942 66.455Z" fill="#4D6296"/>
<path d="M151.456 68.7561C152.567 65.6252 156.16 63.4594 160.237 65.132C164.06 66.7003 163.919 70.8585 163.766 73.4285C163.73 74.0249 164.336 74.3919 164.835 74.0629C165.341 73.7291 165.855 73.361 166.378 72.9873C168.573 71.417 170.908 69.7472 173.324 70.1029C176.105 70.5125 178.033 73.6155 177.403 76.3554C176.929 78.4179 175.535 80.2417 174.527 81.3454C174.407 81.4771 174.465 81.6909 174.636 81.7407C179.14 83.0486 184.056 84.9549 188.859 88.1792C199.169 95.0999 206.325 103.57 209.676 115.76C216.537 140.715 203.297 172.825 162.972 171.43C151.34 171.31 126.25 165.13 118.948 141.364C109.821 111.657 128.97 90.0029 141.676 84.4551C144.358 83.2842 147.447 82.169 150.869 81.3453C150.93 81.3306 151.159 81.275 151.41 81.2139C151.829 81.1117 152.084 80.6931 151.995 80.271C151.288 76.9363 150.59 71.1938 151.456 68.7561Z" fill="#F8F3DA"/>
<path d="M182.42 123.937C182.42 125.798 179.567 128.071 175.452 127.942C170.94 127.8 167.965 126.436 167.965 123.937C167.965 121.687 172.054 119.879 175.452 119.879C178.849 119.879 182.42 121.421 182.42 123.937Z" fill="#F5CCBB"/>
<path d="M132.3 123.06C132.3 125.93 128.445 127.633 125.548 127.526C122.373 127.409 120.118 126.048 120.118 123.06C120.118 120.858 122.662 119.16 126.087 119.16C128.478 119.16 132.3 120.386 132.3 123.06Z" fill="#F5CCBB"/>
<path d="M152.917 107.365C151.761 106.374 150.313 105.749 149.039 105.749C148.27 105.749 147.602 105.845 146.935 106.104C146.272 106.36 145.633 106.768 144.908 107.358C144.343 107.819 143.787 108.54 143.277 109.36C142.762 110.185 142.276 111.138 141.857 112.085C141.438 113.032 141.082 113.98 140.831 114.8C140.584 115.606 140.424 116.328 140.424 116.806C140.424 118.688 141.726 119.699 142.93 120.017C144.062 120.315 149.042 120.999 154.907 120.371L154.952 120.366C155.481 120.31 156.45 120.207 157.138 119.526C157.882 118.79 158.181 117.523 157.654 115.414C157.153 113.411 156.159 111.565 155.205 110.146C154.254 108.732 153.321 107.711 152.917 107.365Z" fill="#4D6296"/>
<path d="M176.61 109.081C176.61 112.538 173.853 114.908 169.821 114.908C165.223 114.908 161.7 113.721 161.7 109.081C161.7 104.903 166.063 101.547 169.52 101.547C172.977 101.547 176.61 104.41 176.61 109.081Z" fill="#4D6296"/>
<path d="M138.462 108.541C138.462 113.006 134.461 114.123 131.564 113.957C128.389 113.775 126.28 113.188 126.28 108.541C126.28 105.116 128.824 102.474 132.249 102.474C134.639 102.474 138.462 104.382 138.462 108.541Z" fill="#4D6296"/>
<path d="M204.905 149.146C194.477 149.687 186.452 140.569 183.744 135.941L204.905 128.662C220.818 136.957 217.94 148.469 204.905 149.146Z" fill="#F8F3DA"/>
<path fill-rule="evenodd" clip-rule="evenodd" d="M203.441 126.898C204.185 125.471 205.945 124.917 207.373 125.661C216.041 130.18 220.903 136.247 220.359 142.299C219.786 148.67 213.633 152.338 206.177 152.725C199.77 153.058 194.246 150.415 190.066 147.218C185.893 144.027 182.825 140.11 181.228 137.383C180.415 135.994 180.882 134.209 182.271 133.395C183.66 132.582 185.446 133.049 186.259 134.438C187.515 136.583 190.097 139.904 193.607 142.588C197.11 145.268 201.301 147.141 205.874 146.904C212.144 146.578 214.368 143.829 214.553 141.777C214.766 139.407 212.766 135.046 204.678 130.83C203.251 130.086 202.697 128.326 203.441 126.898Z" fill="#4D6296"/>
<path d="M102.956 140.812C102.782 134.21 110.309 124.863 113.204 121.316C113.204 139.124 115.97 140.359 119.01 149.046C110.757 151.218 103.173 149.065 102.956 140.812Z" fill="#F8F3DA"/>
<path fill-rule="evenodd" clip-rule="evenodd" d="M116.119 113.137V121.316C116.119 130.085 116.802 134.533 117.762 137.775C118.247 139.414 118.82 140.808 119.503 142.413C119.563 142.556 119.625 142.7 119.687 142.847C120.321 144.333 121.035 146.009 121.761 148.084L122.804 151.062L119.752 151.865C115.27 153.045 110.576 153.168 106.797 151.507C102.761 149.734 100.179 146.09 100.042 140.889C99.9308 136.661 102.203 132.031 104.448 128.389C106.779 124.606 109.493 121.254 110.946 119.473L116.119 113.137ZM109.41 131.447C107.211 135.017 105.807 138.361 105.869 140.736C105.95 143.787 107.268 145.347 109.142 146.17C110.634 146.826 112.663 147.079 115.04 146.83C114.799 146.246 114.559 145.682 114.32 145.122C114.259 144.979 114.199 144.836 114.138 144.693C113.446 143.066 112.759 141.411 112.172 139.429C111.415 136.87 110.856 133.872 110.552 129.676C110.165 130.253 109.781 130.845 109.41 131.447Z" fill="#4D6296"/>
<defs>
<linearGradient id="paint0_linear_8_2" x1="164.952" y1="62.0565" x2="164.952" y2="88.4279" gradientUnits="userSpaceOnUse">
<stop stop-color="#FABBB6"/>
<stop offset="0.47" stop-color="#FAB9BA"/>
<stop offset="1" stop-color="#FFE4BB"/>
</linearGradient>
</defs>
</svg>
