<svg viewBox="0 0 55 8" fill="currentColor" xmlns="http://www.w3.org/2000/svg">
<g clip-path="url(#clip0_4_2)">
<path d="M8.5 4.31L7.87 7.23H7.3C6.59 7.23 6.35 6.99 6.35 6.58C6.35 6.46 6.37 6.34 6.4 6.19L6.83 4.16C6.87 3.99 6.89 3.86 6.89 3.73C6.89 3.31 6.68 3.13 6.25 3.13C5.69 3.13 5.43 3.57 5.31 4.13L4.65 7.24H4.08C3.5 7.24 3.2 7.08 3.2 6.59C3.2 6.47 3.2 6.35 3.24 6.2L3.69 4.12C3.72 3.97 3.73 3.85 3.73 3.74C3.73 3.34 3.52 3.14 3.12 3.14C2.57 3.14 2.29 3.45 2.14 4.15L1.49 7.25H0.92C0.28 7.25 -0.01 6.99 -0.01 6.52C-0.01 6.42 0.01 6.32 0.03 6.21L0.48 4.08C0.81 2.52 1.83 1.73 3.25 1.73C4.04 1.73 4.72 2.25 4.81 2.78C5.18 2.18 5.86 1.73 6.58 1.73C7.38 1.73 8.56 2 8.56 3.61C8.56 3.85 8.54 4.04 8.48 4.33L8.5 4.31Z" fill="currentColor"/>
<path d="M11.87 5.15L11.05 5.11V5.15C11.02 5.87 11.69 6.07 12.27 6.09C13.11 6.13 13.56 5.98 13.96 5.77L13.89 6.14C13.75 6.79 13.37 7.43 11.6 7.35C10.56 7.31 9.35 6.6 9.42 4.97C9.47 3.78 10.39 1.63 12.7 1.73C13.3 1.76 14.82 2.21 14.76 3.58C14.71 4.69 14.06 5.24 11.88 5.15H11.87ZM12.46 3C11.79 2.97 11.44 3.31 11.19 4.02L12.03 4.06C12.89 4.1 13.19 4.03 13.21 3.55C13.22 3.28 12.93 3.02 12.45 3H12.46Z" fill="currentColor"/>
<path d="M21.53 1.26L20.86 4.42C20.65 5.44 20.21 7.38 17.76 7.38C17.23 7.38 15.35 7.18 15.35 4.97C15.35 3.36 16.38 1.73 18.12 1.73C18.76 1.73 19.45 2.02 19.59 2.68L20.16 0H20.75C21.3 0 21.59 0.23 21.59 0.78C21.59 0.92 21.57 1.08 21.53 1.26ZM18.33 3.07C17.34 3.07 17.04 4.35 17.04 4.82C17.04 5.94 17.56 6.06 17.94 6.06C18.94 6.06 19.2 4.8 19.2 4.1C19.2 3.26 18.7 3.07 18.33 3.07Z" fill="currentColor"/>
<path d="M24.34 5.15L23.52 5.13V5.17C23.5 5.89 24.18 6.07 24.76 6.09C25.6 6.11 26.04 5.95 26.44 5.74L26.37 6.11C26.25 6.76 25.87 7.41 24.11 7.37C23.07 7.35 21.85 6.67 21.88 5.04C21.91 3.85 22.78 1.68 25.09 1.73C25.69 1.74 27.22 2.17 27.19 3.53C27.17 4.64 26.53 5.21 24.34 5.16V5.15ZM24.88 3C24.21 2.99 23.87 3.33 23.64 4.05L24.48 4.07C25.34 4.09 25.64 4.02 25.65 3.54C25.65 3.27 25.36 3.02 24.88 3.01V3Z" fill="currentColor"/>
<path d="M36.31 4.31L35.68 7.23H35.11C34.4 7.23 34.16 6.99 34.16 6.58C34.16 6.46 34.18 6.34 34.21 6.19L34.64 4.16C34.68 3.99 34.7 3.86 34.7 3.73C34.7 3.31 34.49 3.13 34.06 3.13C33.5 3.13 33.24 3.57 33.12 4.13L32.46 7.24H31.89C31.31 7.24 31.01 7.08 31.01 6.59C31.01 6.47 31.01 6.35 31.05 6.2L31.5 4.12C31.53 3.97 31.54 3.85 31.54 3.74C31.54 3.34 31.33 3.14 30.93 3.14C30.38 3.14 30.1 3.45 29.95 4.15L29.3 7.25H28.73C28.09 7.25 27.8 6.99 27.8 6.52C27.8 6.42 27.82 6.32 27.84 6.21L28.29 4.08C28.62 2.52 29.64 1.73 31.06 1.73C31.85 1.73 32.53 2.25 32.62 2.78C32.99 2.18 33.67 1.73 34.39 1.73C35.19 1.73 36.37 2 36.37 3.61C36.37 3.85 36.35 4.04 36.29 4.33L36.31 4.31Z" fill="currentColor"/>
<path d="M42.03 4.12L41.84 4.96C41.45 6.72 40.92 7.37 39 7.37C38.21 7.37 37.06 7.09 37.06 5.83C37.06 4.36 38.5 3.92 40.04 3.92H40.46L40.52 3.7C40.52 3.7 40.54 3.59 40.54 3.54C40.54 3.17 40.17 3.01 39.55 3.01C38.6 3.01 38.17 3.23 37.73 3.58L37.83 3C37.92 2.47 38.51 1.7 40.04 1.7C41.33 1.7 42.08 2.47 42.08 3.43C42.08 3.77 42.08 3.94 42.03 4.12ZM39.75 4.97C39.23 4.97 38.69 5.08 38.69 5.73C38.69 6.02 38.9 6.16 39.34 6.16C39.69 6.16 40.05 5.97 40.16 5.44L40.26 4.97H39.75Z" fill="currentColor"/>
<path d="M49.03 1.26L48.36 4.42C48.15 5.44 47.71 7.38 45.26 7.38C44.73 7.38 42.85 7.18 42.85 4.97C42.85 3.36 43.88 1.73 45.62 1.73C46.26 1.73 46.95 2.02 47.09 2.68L47.66 0H48.25C48.8 0 49.09 0.23 49.09 0.78C49.09 0.92 49.07 1.08 49.03 1.26ZM45.84 3.07C44.85 3.07 44.55 4.35 44.55 4.82C44.55 5.94 45.07 6.06 45.45 6.06C46.45 6.06 46.71 4.8 46.71 4.1C46.71 3.26 46.21 3.07 45.84 3.07Z" fill="currentColor"/>
<path d="M51.84 5.15L51.02 5.13V5.17C51 5.89 51.68 6.08 52.26 6.09C53.1 6.11 53.54 5.96 53.94 5.74L53.87 6.11C53.75 6.76 53.37 7.41 51.6 7.36C50.56 7.33 49.34 6.65 49.38 5.02C49.41 3.83 50.3 1.66 52.6 1.72C53.2 1.74 54.73 2.17 54.69 3.53C54.66 4.64 54.02 5.2 51.83 5.15H51.84ZM52.4 3C51.73 2.98 51.39 3.33 51.15 4.04L51.99 4.06C52.85 4.08 53.15 4.01 53.17 3.53C53.17 3.26 52.88 3 52.4 2.99V3Z" fill="currentColor"/>
</g>
<defs>
<clipPath id="clip0_4_2">
<rect width="54.7" height="7.38" fill="white"/>
</clipPath>
</defs>
</svg>
